<?xml version="1.0" encoding="utf-8"?>
<!-- Generator: Adobe Illustrator 16.0.0, SVG Export Plug-In . SVG Version: 6.00 Build 0)  -->
<!DOCTYPE svg PUBLIC "-//W3C//DTD SVG 1.1//EN" "http://www.w3.org/Graphics/SVG/1.1/DTD/svg11.dtd">
<svg version="1.1" id="Layer_1" xmlns="http://www.w3.org/2000/svg" xmlns:xlink="http://www.w3.org/1999/xlink" x="0px" y="0px"
	 width="30px" height="54px" viewBox="0 0 30 54" enable-background="new 0 0 30 54" xml:space="preserve">
<g id="Wine_x5F_Glass_4_">
	<defs>
		<rect id="SVGID_1_" width="30" height="54"/>
	</defs>
	<clipPath id="SVGID_2_">
		<use xlink:href="#SVGID_1_"  overflow="visible"/>
	</clipPath>
	<path clip-path="url(#SVGID_2_)" fill-rule="evenodd" clip-rule="evenodd" fill="#939292" d="M17.344,28.588
		c1.145-0.719,2.975-1.721,5.762-3.705C25.523,23.158,30,20.051,30,12.109C30,5.691,25.826,0,25.826,0H4.174
		C4.174,0,0,5.691,0,12.109c0,7.941,4.48,11.049,6.896,12.773c2.785,1.984,4.615,2.986,5.76,3.705C13.436,29.078,14,29.531,14,30v22
		H5v2h9h2h9v-2h-9V30C16,29.518,16.566,29.078,17.344,28.588z M5.25,2h19.5c1.037,1.676,3.207,5.703,3.242,10H2.008
		C2.043,7.701,4.215,3.674,5.25,2z"/>
</g>
</svg>
